<svg xmlns="http://www.w3.org/2000/svg" viewBox="16417 -2258 800.002 421.066"><defs><style>.a{fill:#1a6785;}.b{fill:#42c3b7;}.c{fill:#e95263;}.d{fill:#ffd176;}</style></defs><g transform="translate(16417 -2258)"><g transform="translate(25.769)"><path class="a" d="M102.2,48.7c0-7.344-5.025-12.369-12.369-12.369H63.679v96.505H89.834c7.344,0,12.369-5.025,12.369-12.369V48.7ZM111.222,0a34.645,34.645,0,0,1,34.4,34.4V134.9a34.7,34.7,0,0,1-34.4,34.659H20V0Z" transform="translate(-20)"/><path class="a" d="M226.034,39.427a2.722,2.722,0,0,0-2.706-2.706h-34.4a2.789,2.789,0,0,0-2.319,2.706v91.222a2.491,2.491,0,0,0,2.319,2.319h34.4a2.5,2.5,0,0,0,2.706-2.319ZM249.87,0c11.854,0,19.842,7.988,19.842,19.842V149.718c0,11.854-7.988,19.842-19.842,19.842H162.642c-11.854,0-19.842-7.988-19.842-19.842V19.842C142.8,7.988,150.788,0,162.642,0Z" transform="translate(15.422)"/><path class="a" d="M454.068,0,422.114,169.56h-38.4L357.563,75.117,330.634,169.56H292.882L260.8,0h42.777l14.817,106.555L341.2,0h35.948l21.646,103.463L414.9,0Z" transform="translate(49.459)"/><path class="a" d="M475.5,76.405V169.56H435.3V0h40.2l50.765,93.413V0h40.2V169.56H525.105Z" transform="translate(99.794)"/></g><g transform="translate(23.45 2.319)"><path class="a" d="M100.274,50.5c0-7.344-5.025-12.369-12.369-12.369H61.879v96.634H88.034c7.344,0,12.369-5.025,12.369-12.369V50.5Zm9.148-48.7a34.645,34.645,0,0,1,34.4,34.4V136.7a34.7,34.7,0,0,1-34.4,34.659H18.2V1.8Z" transform="translate(-18.2 -1.8)"/><path class="a" d="M224.234,41.227a2.722,2.722,0,0,0-2.706-2.706h-34.4a2.789,2.789,0,0,0-2.319,2.706v91.222a2.491,2.491,0,0,0,2.319,2.319h34.4a2.5,2.5,0,0,0,2.706-2.319ZM248.07,1.8c11.854,0,19.842,7.988,19.842,19.842V151.518c0,11.854-7.988,19.842-19.842,19.842H160.842c-11.854,0-19.842-7.988-19.842-19.842V21.642C141,9.788,148.988,1.8,160.842,1.8H248.07Z" transform="translate(17.222 -1.8)"/><path class="a" d="M452.268,1.8,420.314,171.36h-38.4L355.763,76.917,328.834,171.36H291.211L259,1.8h42.777l14.817,106.555L339.4,1.8h35.948l21.646,103.592L412.97,1.8Z" transform="translate(51.259 -1.8)"/><path class="a" d="M473.7,78.205V171.36H433.5V1.8h40.2l50.765,93.542V1.8h40.2V171.36H523.176Z" transform="translate(101.594 -1.8)"/></g><g transform="translate(21.131 4.638)"><path class="a" d="M98.474,52.432c0-7.344-5.025-12.369-12.369-12.369H60.079v96.505H86.234c7.344,0,12.369-5.025,12.369-12.369V52.432ZM107.622,3.6a34.645,34.645,0,0,1,34.4,34.4V138.5a34.7,34.7,0,0,1-34.4,34.659H16.4V3.6Z" transform="translate(-16.4 -3.6)"/><path class="a" d="M222.434,43.155a2.722,2.722,0,0,0-2.706-2.706h-34.4a2.789,2.789,0,0,0-2.319,2.706v91.094a2.491,2.491,0,0,0,2.319,2.319h34.4a2.5,2.5,0,0,0,2.706-2.319ZM246.27,3.6c11.854,0,19.842,7.988,19.842,19.842V153.318c0,11.854-7.988,19.842-19.842,19.842H159.042c-11.854,0-19.842-7.988-19.842-19.842V23.442c0-11.854,7.988-19.842,19.842-19.842H246.27Z" transform="translate(19.022 -3.6)"/><path class="a" d="M450.339,3.6,418.514,173.289H379.989L353.963,78.717l-26.929,94.572H289.282L257.2,3.6h42.648l14.817,106.555L337.6,3.6h35.948l21.517,103.592L411.17,3.6Z" transform="translate(53.059 -3.6)"/><path class="a" d="M471.9,80.005v93.284H431.7V3.6h40.2l50.765,93.542V3.6h40.2V173.289H521.376Z" transform="translate(103.394 -3.6)"/></g><g transform="translate(18.683 7.086)"><path class="a" d="M96.7,54.2c0-7.344-5.025-12.369-12.369-12.369H58.307v96.505H84.463c7.344,0,12.369-5.025,12.369-12.369V54.2Zm9.019-48.7a34.645,34.645,0,0,1,34.4,34.4V140.4a34.7,34.7,0,0,1-34.4,34.659H14.5V5.5Z" transform="translate(-14.5 -5.5)"/><path class="a" d="M220.505,44.927a2.722,2.722,0,0,0-2.706-2.706H183.4a2.789,2.789,0,0,0-2.319,2.706v91.222a2.491,2.491,0,0,0,2.319,2.319h34.4a2.5,2.5,0,0,0,2.706-2.319ZM244.47,5.5c11.854,0,19.842,7.988,19.842,19.842V155.218c0,11.854-7.988,19.842-19.842,19.842H157.242c-11.854,0-19.842-7.988-19.842-19.842V25.342c0-11.854,7.988-19.842,19.842-19.842Z" transform="translate(20.951 -5.5)"/><path class="a" d="M448.539,5.5,416.714,175.06H378.19L352.034,80.617l-26.8,94.444H287.482L255.4,5.5h42.648l14.817,106.426L335.8,5.5h35.948l21.517,103.463L409.37,5.5Z" transform="translate(54.988 -5.5)"/><path class="a" d="M470.1,81.776V175.06H429.9V5.5h40.2l50.765,93.413V5.5h40.2V175.06H519.576Z" transform="translate(105.323 -5.5)"/></g><g transform="translate(16.363 9.406)"><path class="a" d="M94.9,56c0-7.344-5.025-12.369-12.369-12.369H56.507v96.505H82.663c7.344,0,12.369-5.025,12.369-12.369V56Zm9.019-48.7a34.645,34.645,0,0,1,34.4,34.4V142.2a34.7,34.7,0,0,1-34.4,34.659H12.7V7.3Z" transform="translate(-12.7 -7.3)"/><path class="a" d="M218.705,46.727A2.722,2.722,0,0,0,216,44.021H181.6a2.789,2.789,0,0,0-2.319,2.706v91.222a2.491,2.491,0,0,0,2.319,2.319H216a2.5,2.5,0,0,0,2.706-2.319ZM242.542,7.3c11.854,0,19.842,7.988,19.842,19.842V157.018c0,11.854-7.988,19.842-19.842,19.842h-87.1c-11.854,0-19.842-7.988-19.842-19.842V27.142c0-11.854,7.988-19.842,19.842-19.842h87.1Z" transform="translate(22.751 -7.3)"/><path class="a" d="M446.739,7.3,414.785,176.86h-38.4L350.234,82.417l-26.8,94.444H285.682L253.6,7.3h42.648l14.817,106.555L334,7.3h35.819l21.646,103.463L407.57,7.3Z" transform="translate(56.788 -7.3)"/><path class="a" d="M468.3,83.705V176.86H428.1V7.3h40.2l50.765,93.413V7.3h40.2V176.86H517.776Z" transform="translate(107.123 -7.3)"/></g><g transform="translate(14.044 11.725)"><path class="a" d="M93.1,57.8c0-7.344-5.025-12.369-12.369-12.369H54.579v96.505H80.734c7.344,0,12.369-5.025,12.369-12.369Zm9.019-48.7a34.645,34.645,0,0,1,34.4,34.4V144a34.7,34.7,0,0,1-34.4,34.659H10.9V9.1Z" transform="translate(-10.9 -9.1)"/><path class="a" d="M216.934,48.527a2.722,2.722,0,0,0-2.706-2.706h-34.4a2.789,2.789,0,0,0-2.319,2.706v91.222a2.491,2.491,0,0,0,2.319,2.319h34.4a2.5,2.5,0,0,0,2.706-2.319ZM240.77,9.1c11.854,0,19.842,7.988,19.842,19.842V158.818c0,11.854-7.988,19.842-19.842,19.842H153.542c-11.854,0-19.842-7.988-19.842-19.842V28.942c0-11.854,7.988-19.842,19.842-19.842Z" transform="translate(24.522 -9.1)"/><path class="a" d="M444.968,9.1,413.014,178.66h-38.4L348.463,84.217,321.534,178.66H283.911L251.7,9.1h42.777l14.817,106.555L332.1,9.1h35.948l21.646,103.463L405.8,9.1Z" transform="translate(58.559 -9.1)"/><path class="a" d="M466.5,85.505V178.66H426.3V9.1h40.2l50.765,93.413V9.1h40.2V178.66H515.976Z" transform="translate(108.923 -9.1)"/></g><g transform="translate(11.725 14.044)"><path class="a" d="M91.3,59.6c0-7.344-5.025-12.369-12.369-12.369H52.779v96.505H78.934c7.344,0,12.369-5.025,12.369-12.369Zm9.019-48.7a34.645,34.645,0,0,1,34.4,34.4V145.8a34.7,34.7,0,0,1-34.4,34.659H9.1V10.9Z" transform="translate(-9.1 -10.9)"/><path class="a" d="M215.134,50.327a2.722,2.722,0,0,0-2.706-2.706h-34.4a2.789,2.789,0,0,0-2.319,2.706v91.222a2.491,2.491,0,0,0,2.319,2.319h34.4a2.5,2.5,0,0,0,2.706-2.319ZM238.97,10.9c11.854,0,19.842,7.988,19.842,19.842V160.618c0,11.854-7.988,19.842-19.842,19.842H151.742c-11.854,0-19.842-7.988-19.842-19.842V30.742c0-11.854,7.988-19.842,19.842-19.842Z" transform="translate(26.322 -10.9)"/><path class="a" d="M443.168,10.9,411.214,180.46h-38.4L346.663,86.017,319.734,180.46H282.111L249.9,10.9h42.777l14.817,106.555L330.3,10.9h35.948l21.646,103.592L404,10.9Z" transform="translate(60.359 -10.9)"/><path class="a" d="M464.6,87.305V180.46H424.4V10.9h40.2l50.765,93.542V10.9h40.2V180.46H514.205Z" transform="translate(110.694 -10.9)"/></g><g transform="translate(9.406 16.363)"><path class="a" d="M89.374,61.532c0-7.344-5.025-12.369-12.369-12.369H50.979v96.505H77.134c7.344,0,12.369-5.025,12.369-12.369V61.532ZM98.522,12.7a34.645,34.645,0,0,1,34.4,34.4V147.6a34.7,34.7,0,0,1-34.4,34.659H7.3V12.7Z" transform="translate(-7.3 -12.7)"/><path class="a" d="M213.334,52.127a2.722,2.722,0,0,0-2.706-2.706h-34.4a2.789,2.789,0,0,0-2.319,2.706v91.222a2.491,2.491,0,0,0,2.319,2.319h34.4a2.5,2.5,0,0,0,2.706-2.319ZM237.17,12.7c11.854,0,19.842,7.988,19.842,19.842v130c0,11.854-7.988,19.842-19.842,19.842H149.942c-11.854,0-19.842-7.988-19.842-19.842v-130c0-11.854,7.988-19.842,19.842-19.842H237.17Z" transform="translate(28.122 -12.7)"/><path class="a" d="M441.368,12.7,409.414,182.389h-38.4L344.863,87.817l-26.929,94.572H280.311L248.1,12.7h42.648l14.946,106.555L328.5,12.7h35.948l21.646,103.592L402.07,12.7Z" transform="translate(62.159 -12.7)"/><path class="a" d="M462.8,89.105v93.284H422.6V12.7h40.2l50.765,93.542V12.7h40.2V182.389H512.276Z" transform="translate(112.494 -12.7)"/></g><g transform="translate(7.086 18.683)"><path class="a" d="M87.574,63.332c0-7.344-5.025-12.369-12.369-12.369H49.179v96.505H75.334c7.344,0,12.369-5.025,12.369-12.369V63.332ZM96.594,14.5A34.645,34.645,0,0,1,131,48.9V149.4a34.7,34.7,0,0,1-34.4,34.659H5.5V14.5Z" transform="translate(-5.5 -14.5)"/><path class="a" d="M211.534,54.055a2.722,2.722,0,0,0-2.706-2.706H174.3a2.789,2.789,0,0,0-2.319,2.706v91.222A2.491,2.491,0,0,0,174.3,147.6h34.4a2.5,2.5,0,0,0,2.706-2.319V54.055ZM235.37,14.5c11.854,0,19.842,7.988,19.842,19.842V164.218c0,11.854-7.988,19.842-19.842,19.842H148.142c-11.854,0-19.842-7.988-19.842-19.842V34.471c0-11.854,7.988-19.842,19.842-19.842H235.37Z" transform="translate(29.922 -14.5)"/><path class="a" d="M439.439,14.5,407.614,184.189H369.089L343.063,89.746l-26.929,94.444H278.382L246.3,14.5h42.648l14.817,106.555L326.7,14.5h35.948l21.517,103.592L400.27,14.5Z" transform="translate(63.959 -14.5)"/><path class="a" d="M461,90.905v93.284H420.8V14.5H461l50.765,93.542V14.5h40.2V184.189H510.476Z" transform="translate(114.294 -14.5)"/></g><g transform="translate(4.638 21.131)"><path class="a" d="M85.8,65.1c0-7.344-5.025-12.369-12.369-12.369H47.407v96.505H73.563c7.344,0,12.369-5.025,12.369-12.369V65.1Zm9.019-48.7a34.645,34.645,0,0,1,34.4,34.4V151.3a34.7,34.7,0,0,1-34.4,34.659H3.6V16.4Z" transform="translate(-3.6 -16.4)"/><path class="a" d="M209.605,55.827a2.722,2.722,0,0,0-2.706-2.706H172.5a2.789,2.789,0,0,0-2.319,2.706v91.222a2.491,2.491,0,0,0,2.319,2.319h34.4a2.5,2.5,0,0,0,2.706-2.319ZM233.57,16.4c11.854,0,19.842,7.988,19.842,19.842V166.118c0,11.854-7.988,19.842-19.842,19.842H146.342c-11.854,0-19.842-7.988-19.842-19.842V36.242c0-11.854,7.988-19.842,19.842-19.842Z" transform="translate(31.851 -16.4)"/><path class="a" d="M437.639,16.4,405.814,185.96H367.289L341.134,91.517l-26.8,94.444H276.582L244.5,16.4h42.648l14.817,106.426L324.9,16.4h35.819l21.646,103.463L398.47,16.4Z" transform="translate(65.888 -16.4)"/><path class="a" d="M459.2,92.676V185.96H419V16.4h40.2l50.765,93.413V16.4h40.2V185.96H508.676Z" transform="translate(116.223 -16.4)"/></g><g transform="translate(2.319 23.45)"><path class="a" d="M84,66.9c0-7.344-5.025-12.369-12.369-12.369H45.479v96.505H71.634c7.344,0,12.369-5.025,12.369-12.369Zm9.019-48.7a34.645,34.645,0,0,1,34.4,34.4V153.1a34.7,34.7,0,0,1-34.4,34.659H1.8V18.2Z" transform="translate(-1.8 -18.2)"/><path class="a" d="M207.834,57.627a2.722,2.722,0,0,0-2.706-2.706h-34.4a2.789,2.789,0,0,0-2.319,2.706v91.222a2.491,2.491,0,0,0,2.319,2.319h34.4a2.5,2.5,0,0,0,2.706-2.319ZM231.67,18.2c11.854,0,19.842,7.988,19.842,19.842V167.918c0,11.854-7.988,19.842-19.842,19.842H144.442c-11.854,0-19.842-7.988-19.842-19.842V38.042c0-11.854,7.988-19.842,19.842-19.842H231.67Z" transform="translate(33.622 -18.2)"/><path class="a" d="M435.868,18.2,403.914,187.76h-38.4L339.363,93.317l-26.8,94.444H274.811L242.6,18.2h42.777l14.817,106.555L323,18.2h35.948l21.646,103.463L396.7,18.2Z" transform="translate(67.659 -18.2)"/><path class="a" d="M457.4,94.605V187.76H417.2V18.2h40.2l50.765,93.413V18.2h40.2V187.76H506.876Z" transform="translate(118.023 -18.2)"/></g><g transform="translate(0 25.769)"><path class="a" d="M82.2,68.7c0-7.344-5.025-12.369-12.369-12.369H43.679v96.505H69.834c7.344,0,12.369-5.025,12.369-12.369V68.7ZM91.222,20a34.645,34.645,0,0,1,34.4,34.4V154.9a34.7,34.7,0,0,1-34.4,34.659H0V20Z" transform="translate(0 -20)"/><path class="a" d="M206.034,59.427a2.722,2.722,0,0,0-2.706-2.706h-34.4a2.789,2.789,0,0,0-2.319,2.706v91.222a2.491,2.491,0,0,0,2.319,2.319h34.4a2.5,2.5,0,0,0,2.706-2.319ZM229.87,20c11.854,0,19.842,7.988,19.842,19.842V169.718c0,11.854-7.988,19.842-19.842,19.842H142.642c-11.854,0-19.842-7.988-19.842-19.842V39.842C122.8,27.988,130.788,20,142.642,20Z" transform="translate(35.422 -20)"/><path class="a" d="M434.068,20,402.114,189.56h-38.4L337.563,95.117,310.634,189.56H272.882L240.8,20h42.777l14.817,106.555L321.2,20h35.948l21.646,103.463L394.9,20Z" transform="translate(69.459 -20)"/><path class="a" d="M455.5,96.405V189.56H415.3V20h40.2l50.765,93.413V20h40.2V189.56H505.105Z" transform="translate(119.794 -20)"/></g><g transform="translate(25.769)"><path class="b" d="M111.222,0a34.645,34.645,0,0,1,34.4,34.4V134.9a34.7,34.7,0,0,1-34.4,34.659H20V0ZM102.2,48.7c0-7.344-5.025-12.369-12.369-12.369H63.679v96.505H89.834c7.344,0,12.369-5.025,12.369-12.369V48.7Z" transform="translate(-20)"/><path class="b" d="M249.87,0c11.854,0,19.842,7.988,19.842,19.842V149.718c0,11.854-7.988,19.842-19.842,19.842H162.642c-11.854,0-19.842-7.988-19.842-19.842V19.842C142.8,7.988,150.788,0,162.642,0ZM226.034,39.427a2.722,2.722,0,0,0-2.706-2.706h-34.4a2.789,2.789,0,0,0-2.319,2.706v91.222a2.491,2.491,0,0,0,2.319,2.319h34.4a2.5,2.5,0,0,0,2.706-2.319Z" transform="translate(15.422)"/><path class="b" d="M454.068,0,422.114,169.56h-38.4L357.563,75.117,330.634,169.56H292.882L260.8,0h42.777l14.817,106.555L341.2,0h35.948l21.646,103.463L414.9,0Z" transform="translate(49.459)"/><path class="b" d="M475.5,76.405V169.56H435.3V0h40.2l50.765,93.413V0h40.2V169.56H525.105Z" transform="translate(99.794)"/></g><g transform="translate(0 221.227)"><g transform="translate(26.542)"><path class="c" d="M152.924,345.77H107.957V276.58H65.438v69.19H20.6V171.7H65.438v66.484h42.519V171.7H152.8V345.77Z" transform="translate(-20.6 -171.7)"/><path class="c" d="M234.736,264.726V212.415c0-3.092-2.577-5.154-6.185-5.154H200.721a5.23,5.23,0,0,0-5.411,5.154v52.311ZM279.7,345.77H234.865V302.478H195.438V345.77H150.6V192.058c0-12.111,8.246-20.358,20.358-20.358h88.388c12.111,0,20.358,8.246,20.358,20.358Z" transform="translate(16.899 -171.7)"/><path class="c" d="M399.22,171.7v37.623H359.794V345.77H314.827V209.323H275.4V171.7Z" transform="translate(52.898 -171.7)"/><path class="c" d="M523.786,280.7v45.1c0,11.338-9.277,19.842-20.357,19.842H415.942A19.529,19.529,0,0,1,396.1,325.8V191.284A19.8,19.8,0,0,1,415.942,171.7h87.486c11.081,0,20.357,9.019,20.357,19.584v44.838H478.948V211.9a2.826,2.826,0,0,0-2.319-2.835H443.9a2.86,2.86,0,0,0-2.835,2.835v93.67a2.649,2.649,0,0,0,2.835,2.577h32.727a2.547,2.547,0,0,0,2.319-2.577V280.832h44.838Z" transform="translate(87.714 -171.7)"/><path class="c" d="M650.5,345.77H605.657V276.58H563.138v69.19H518.3V171.7h44.838v66.484h42.519V171.7H650.5Z" transform="translate(122.963 -171.7)"/></g><g transform="translate(24.094 2.319)"><path class="c" d="M151.024,347.57H106.186V278.509H63.538V347.57H18.7V173.5H63.538v66.484h42.648V173.5h44.838Z" transform="translate(-18.7 -173.5)"/><path class="c" d="M232.965,266.655V214.344c0-3.092-2.577-5.154-6.185-5.154H198.95a5.23,5.23,0,0,0-5.411,5.154v52.311h39.427ZM277.8,347.57H232.965V304.278H193.538V347.57H148.7V193.858c0-12.111,8.246-20.358,20.358-20.358h88.517c12.111,0,20.358,8.246,20.358,20.358V347.57Z" transform="translate(18.799 -173.5)"/><path class="c" d="M397.32,173.5v37.623H357.894V347.57H313.055V211.123H273.5V173.5Z" transform="translate(54.798 -173.5)"/><path class="c" d="M521.886,282.632v45.1c0,11.338-9.277,19.842-20.358,19.842H414.042A19.529,19.529,0,0,1,394.2,327.728V193.084A19.8,19.8,0,0,1,414.042,173.5h87.486c11.081,0,20.358,9.019,20.358,19.584v44.838H477.047V213.7a2.826,2.826,0,0,0-2.319-2.835H442a2.86,2.86,0,0,0-2.835,2.835v93.67A2.649,2.649,0,0,0,442,309.947h32.727a2.547,2.547,0,0,0,2.319-2.577V282.632h44.838Z" transform="translate(89.614 -173.5)"/><path class="c" d="M648.624,347.57H603.786V278.509H561.267V347.57H516.3V173.5h44.967v66.484h42.519V173.5h44.838Z" transform="translate(124.834 -173.5)"/></g><g transform="translate(21.646 4.638)"><path class="c" d="M149.124,349.37H104.286V280.309H61.767V349.37H16.8V175.3H61.767v66.613h42.519V175.3h44.838Z" transform="translate(-16.8 -175.3)"/><path class="c" d="M231.065,268.455V216.144c0-3.092-2.577-5.154-6.185-5.154H197.05a5.23,5.23,0,0,0-5.411,5.154v52.311ZM275.9,349.37H231.065V306.078H191.638V349.37H146.8V195.658c0-12.111,8.246-20.358,20.358-20.358h88.517c12.111,0,20.358,8.246,20.358,20.358V349.37Z" transform="translate(20.699 -175.3)"/><path class="c" d="M395.52,175.3v37.623H355.965V349.37H311.127V212.923H271.7V175.3Z" transform="translate(56.726 -175.3)"/><path class="c" d="M520.086,284.432v45.1c0,11.338-9.277,19.842-20.358,19.842H412.242A19.529,19.529,0,0,1,392.4,329.528V194.884A19.8,19.8,0,0,1,412.242,175.3h87.486c11.081,0,20.358,9.019,20.358,19.584v44.838H475.247V215.5a2.826,2.826,0,0,0-2.319-2.835H440.2a2.86,2.86,0,0,0-2.835,2.835V309.17a2.649,2.649,0,0,0,2.835,2.577h32.727a2.547,2.547,0,0,0,2.319-2.577V284.432Z" transform="translate(91.543 -175.3)"/><path class="c" d="M646.824,349.37H601.857V280.309H559.338V349.37H514.5V175.3h44.838v66.613h42.519V175.3h44.967Z" transform="translate(126.763 -175.3)"/></g><g transform="translate(19.327 6.958)"><path class="c" d="M147.324,351.17H102.357V282.109H59.838V351.17H15V177.1H59.838v66.613h42.519V177.1h44.967Z" transform="translate(-15 -177.1)"/><path class="c" d="M229.136,270.255V217.944c0-3.092-2.577-5.154-6.185-5.154H195.121a5.23,5.23,0,0,0-5.411,5.154v52.311ZM274.1,351.17H229.265V307.878H189.838V351.17H145V197.458c0-12.111,8.246-20.358,20.358-20.358h88.517c12.111,0,20.358,8.246,20.358,20.358V351.17Z" transform="translate(22.499 -177.1)"/><path class="c" d="M393.62,177.1v37.623H354.194V351.17H309.227V214.723H269.8V177.1Z" transform="translate(58.498 -177.1)"/><path class="c" d="M518.186,286.232v45.1c0,11.338-9.277,19.842-20.358,19.842H410.342A19.529,19.529,0,0,1,390.5,331.328V196.684A19.8,19.8,0,0,1,410.342,177.1h87.486c11.081,0,20.358,9.019,20.358,19.584v44.838H473.347V217.3a2.826,2.826,0,0,0-2.319-2.835H438.3a2.86,2.86,0,0,0-2.835,2.835v93.67a2.649,2.649,0,0,0,2.835,2.577h32.727a2.547,2.547,0,0,0,2.319-2.577V286.232Z" transform="translate(93.314 -177.1)"/><path class="c" d="M644.924,351.17H600.086V282.109H557.438V351.17H512.6V177.1h44.838v66.613h42.648V177.1h44.838Z" transform="translate(128.534 -177.1)"/></g><g transform="translate(16.879 9.277)"><path class="c" d="M145.424,353.1H100.586v-69.19H57.938V353.1H13.1V178.9H57.938v66.613h42.648V178.9h44.838Z" transform="translate(-13.1 -178.9)"/><path class="c" d="M227.394,272.026V219.715c0-3.092-2.577-5.154-6.185-5.154H193.25a5.23,5.23,0,0,0-5.411,5.154v52.311h39.555Zm44.838,81.044H227.394V309.778H187.967V353.07H143V199.358C143,187.246,151.246,179,163.358,179h88.517c12.111,0,20.358,8.246,20.358,20.358Z" transform="translate(24.37 -178.871)"/><path class="c" d="M391.72,178.9v37.752H352.294V353.1H307.327V216.652H267.9V178.9Z" transform="translate(60.398 -178.9)"/><path class="c" d="M516.286,288v45.1c0,11.338-9.277,19.842-20.357,19.842H408.442A19.529,19.529,0,0,1,388.6,333.1V198.584A19.8,19.8,0,0,1,408.442,179h87.486c11.081,0,20.358,9.019,20.358,19.584v44.838H471.447V219.2a2.826,2.826,0,0,0-2.319-2.835H436.4a2.86,2.86,0,0,0-2.835,2.835v93.67a2.649,2.649,0,0,0,2.835,2.577h32.727a2.547,2.547,0,0,0,2.319-2.577V288.132h44.838Z" transform="translate(95.214 -178.871)"/><path class="c" d="M643.024,353.1H598.186v-69.19H555.667V353.1H510.7V178.9h44.967v66.613h42.519V178.9h44.838Z" transform="translate(130.434 -178.9)"/></g><g transform="translate(14.431 11.725)"><path class="c" d="M143.524,354.87H98.686V285.68H56.167v69.19H11.2V180.8H56.167v66.484H98.686V180.8h44.838Z" transform="translate(-11.2 -180.8)"/><path class="c" d="M225.465,273.826V221.515c0-3.092-2.577-5.154-6.185-5.154H191.45a5.23,5.23,0,0,0-5.411,5.154v52.311ZM270.3,354.87H225.465V311.578H186.038V354.87H141.2V201.158c0-12.111,8.246-20.358,20.358-20.358h88.517c12.111,0,20.358,8.246,20.358,20.358V354.87Z" transform="translate(26.299 -180.8)"/><path class="c" d="M389.791,180.8v37.623H350.365V354.87H305.527V218.423H266.1V180.8Z" transform="translate(62.326 -180.8)"/><path class="c" d="M514.486,289.8v45.1c0,11.338-9.277,19.842-20.358,19.842H406.642A19.529,19.529,0,0,1,386.8,334.9V200.384A19.8,19.8,0,0,1,406.642,180.8H494c11.081,0,20.358,9.019,20.358,19.584v44.838H469.519V221a2.826,2.826,0,0,0-2.319-2.835H434.473A2.86,2.86,0,0,0,431.638,221V314.67a2.649,2.649,0,0,0,2.835,2.577H467.2a2.547,2.547,0,0,0,2.319-2.577V289.932h44.967Z" transform="translate(97.143 -180.8)"/><path class="c" d="M641.224,354.87H596.257V285.68H553.738v69.19H508.9V180.8h44.838v66.484h42.519V180.8h44.967Z" transform="translate(132.363 -180.8)"/></g><g transform="translate(12.111 14.044)"><path class="c" d="M141.6,356.67H96.757V287.609H54.238V356.67H9.4V182.6H54.238v66.484H96.757V182.6H141.6Z" transform="translate(-9.4 -182.6)"/><path class="c" d="M223.536,275.626V223.315c0-3.092-2.577-5.154-6.185-5.154H189.521a5.23,5.23,0,0,0-5.411,5.154v52.311h39.427ZM268.5,356.67H223.665V313.378H184.238V356.67H139.4V202.958c0-12.111,8.246-20.358,20.358-20.358h88.517c12.111,0,20.358,8.246,20.358,20.358V356.67Z" transform="translate(28.099 -182.6)"/><path class="c" d="M388.02,182.6v37.623H348.465V356.67H303.627V220.223H264.2V182.6Z" transform="translate(64.098 -182.6)"/><path class="c" d="M512.586,291.732v45.1c0,11.338-9.277,19.842-20.358,19.842H404.742A19.529,19.529,0,0,1,384.9,336.828V202.184A19.8,19.8,0,0,1,404.742,182.6h87.486c11.081,0,20.358,9.019,20.358,19.584v44.838H467.747V222.8a2.826,2.826,0,0,0-2.319-2.835H432.7a2.86,2.86,0,0,0-2.835,2.835v93.67a2.649,2.649,0,0,0,2.835,2.577h32.727a2.547,2.547,0,0,0,2.319-2.577V291.732Z" transform="translate(98.914 -182.6)"/><path class="c" d="M639.324,356.67H594.486V287.609H551.838V356.67H507V182.6h44.838v66.484h42.648V182.6h44.838Z" transform="translate(134.134 -182.6)"/></g><g transform="translate(9.663 16.363)"><path class="c" d="M139.824,358.47H94.857V289.409H52.338V358.47H7.5V184.4H52.338v66.484H94.857V184.4h44.967Z" transform="translate(-7.5 -184.4)"/><path class="c" d="M221.765,277.555v-52.44c0-3.092-2.577-5.154-6.185-5.154H187.75a5.23,5.23,0,0,0-5.411,5.154v52.311h39.427ZM266.6,358.47H221.765V315.178H182.338V358.47H137.5V204.758c0-12.111,8.246-20.358,20.358-20.358h88.517c12.111,0,20.358,8.246,20.358,20.358V358.47Z" transform="translate(29.999 -184.4)"/><path class="c" d="M386.12,184.4v37.623H346.694V358.47H301.727V222.023H262.3V184.4Z" transform="translate(65.998 -184.4)"/><path class="c" d="M510.686,293.532v45.1c0,11.338-9.277,19.842-20.358,19.842H402.842A19.529,19.529,0,0,1,383,338.628V203.984A19.8,19.8,0,0,1,402.842,184.4h87.486c11.081,0,20.358,9.019,20.358,19.584v44.838H465.847V224.6a2.826,2.826,0,0,0-2.319-2.835H430.8a2.86,2.86,0,0,0-2.835,2.835v93.67a2.649,2.649,0,0,0,2.835,2.577h32.727a2.547,2.547,0,0,0,2.319-2.577V293.532h44.838Z" transform="translate(100.814 -184.4)"/><path class="c" d="M637.424,358.47H592.586V289.409H550.067V358.47H505.1V184.4h44.967v66.484h42.519V184.4h44.838Z" transform="translate(136.034 -184.4)"/></g><g transform="translate(7.215 18.683)"><path class="c" d="M137.924,360.27H93.086V291.209H50.438V360.27H5.6V186.2H50.438v66.613H93.086V186.2h44.838Z" transform="translate(-5.6 -186.2)"/><path class="c" d="M219.865,279.355V227.044c0-3.092-2.577-5.154-6.185-5.154H185.85a5.23,5.23,0,0,0-5.411,5.154v52.311ZM264.7,360.27H219.865V316.978H180.438V360.27H135.6V206.558c0-12.111,8.246-20.358,20.358-20.358h88.388c12.111,0,20.358,8.246,20.358,20.358Z" transform="translate(31.899 -186.2)"/><path class="c" d="M384.22,186.2v37.623H344.794V360.27H299.955V223.823H260.4V186.2Z" transform="translate(67.898 -186.2)"/><path class="c" d="M508.786,295.332v45.1c0,11.338-9.277,19.842-20.357,19.842H400.942A19.529,19.529,0,0,1,381.1,340.428V205.784A19.8,19.8,0,0,1,400.942,186.2h87.486c11.081,0,20.357,9.019,20.357,19.584v44.838H463.948V226.4a2.826,2.826,0,0,0-2.319-2.835H428.9a2.86,2.86,0,0,0-2.835,2.835v93.67a2.649,2.649,0,0,0,2.835,2.577h32.727a2.547,2.547,0,0,0,2.319-2.577V295.332h44.838Z" transform="translate(102.714 -186.2)"/><path class="c" d="M635.624,360.27H590.657V291.209H548.138V360.27H503.3V186.2h44.838v66.613h42.519V186.2h44.967Z" transform="translate(137.963 -186.2)"/></g><g transform="translate(4.767 21.002)"><path class="c" d="M136.024,362.2H91.186v-69.19H48.667V362.2H3.7V188H48.667v66.613H91.186V188h44.838Z" transform="translate(-3.7 -188)"/><path class="c" d="M217.965,281.155V228.844c0-3.092-2.577-5.154-6.185-5.154H183.95a5.23,5.23,0,0,0-5.411,5.154v52.311ZM262.8,362.2H217.965V318.907H178.538V362.2H133.7V208.358c0-12.111,8.246-20.358,20.358-20.358h88.517c12.111,0,20.358,8.246,20.358,20.358V362.2Z" transform="translate(33.799 -188)"/><path class="c" d="M382.42,188v37.752H342.865V362.2H298.027V225.752H258.6V188Z" transform="translate(69.826 -188)"/><path class="c" d="M506.986,297.132v45.1c0,11.338-9.277,19.842-20.358,19.842H399.142A19.529,19.529,0,0,1,379.3,342.228V207.584A19.8,19.8,0,0,1,399.142,188h87.486c11.081,0,20.358,9.019,20.358,19.584v44.838H462.147V228.2a2.826,2.826,0,0,0-2.319-2.835H427.1a2.86,2.86,0,0,0-2.835,2.835v93.67a2.649,2.649,0,0,0,2.835,2.577h32.727a2.547,2.547,0,0,0,2.319-2.577V297.132h44.838Z" transform="translate(104.643 -188)"/><path class="c" d="M633.724,362.2H588.886v-69.19H546.238V362.2H501.4V188h44.838v66.613h42.648V188h44.838Z" transform="translate(139.863 -188)"/></g><g transform="translate(2.448 23.321)"><path class="c" d="M134.224,364H89.257v-69.19H46.738V364H1.9V189.8H46.738v66.613H89.257V189.8h44.967Z" transform="translate(-1.9 -189.8)"/><path class="c" d="M216.036,282.926V230.615c0-3.092-2.577-5.154-6.185-5.154H182.021a5.23,5.23,0,0,0-5.411,5.154v52.311ZM261,363.97H216.165V320.678H176.738V363.97H131.9V210.258c0-12.111,8.246-20.358,20.358-20.358h88.517c12.111,0,20.358,8.246,20.358,20.358V363.97Z" transform="translate(35.599 -189.771)"/><path class="c" d="M380.52,189.8v37.752H341.094V364H296.127V227.552H256.7V189.8Z" transform="translate(71.598 -189.8)"/><path class="c" d="M505.086,298.9V344c0,11.338-9.277,19.842-20.358,19.842H397.242A19.529,19.529,0,0,1,377.4,344V209.484A19.8,19.8,0,0,1,397.242,189.9h87.486c11.081,0,20.358,9.019,20.358,19.584v44.838H460.247V230.1a2.826,2.826,0,0,0-2.319-2.835H425.2a2.86,2.86,0,0,0-2.835,2.835v93.67a2.649,2.649,0,0,0,2.835,2.577h32.727a2.547,2.547,0,0,0,2.319-2.577V299.032h44.838Z" transform="translate(106.414 -189.771)"/><path class="c" d="M631.824,364H586.986v-69.19H544.467V364H499.5V189.8h44.967v66.613h42.519V189.8h44.838Z" transform="translate(141.634 -189.8)"/></g><g transform="translate(0 25.769)"><path class="c" d="M132.324,365.77H87.486V296.58H44.967v69.19H0V191.7H44.838v66.484H87.357V191.7H132.2V365.77Z" transform="translate(0 -191.7)"/><path class="c" d="M214.265,284.726V232.415c0-3.092-2.577-5.154-6.185-5.154H180.25a5.23,5.23,0,0,0-5.411,5.154v52.311ZM259.1,365.77H214.265V322.478H174.838V365.77H130V212.058c0-12.111,8.246-20.358,20.358-20.358h88.517c12.111,0,20.358,8.246,20.358,20.358V365.77Z" transform="translate(37.499 -191.7)"/><path class="c" d="M378.591,191.7v37.623H339.165V365.77H294.327V229.323H254.9V191.7Z" transform="translate(73.526 -191.7)"/><path class="c" d="M503.157,300.7v45.1c0,11.338-9.277,19.842-20.358,19.842H395.442A19.529,19.529,0,0,1,375.6,345.8V211.284A19.8,19.8,0,0,1,395.442,191.7h87.486c11.081,0,20.358,9.019,20.358,19.584v44.838H458.447V231.9a2.826,2.826,0,0,0-2.319-2.835H423.4a2.86,2.86,0,0,0-2.835,2.835v93.67a2.649,2.649,0,0,0,2.835,2.577H456a2.547,2.547,0,0,0,2.319-2.577V300.832h44.838Z" transform="translate(108.343 -191.7)"/><path class="c" d="M629.9,365.77H585.057V296.58H542.538v69.19H497.7V191.7h44.838v66.484h42.519V191.7H629.9Z" transform="translate(143.563 -191.7)"/></g><g transform="translate(26.542)"><path class="d" d="M152.924,345.77H107.957V276.58H65.438v69.19H20.6V171.7H65.438v66.484h42.519V171.7H152.8V345.77Z" transform="translate(-20.6 -171.7)"/><path class="d" d="M279.7,345.77H234.865V302.478H195.438V345.77H150.6V192.058c0-12.111,8.246-20.358,20.358-20.358h88.388c12.111,0,20.358,8.246,20.358,20.358Zm-44.967-81.044V212.415c0-3.092-2.577-5.154-6.185-5.154H200.721a5.23,5.23,0,0,0-5.411,5.154v52.311Z" transform="translate(16.899 -171.7)"/><path class="d" d="M399.22,171.7v37.623H359.794V345.77H314.827V209.323H275.4V171.7Z" transform="translate(52.898 -171.7)"/><path class="d" d="M523.786,280.7v45.1c0,11.338-9.277,19.842-20.357,19.842H415.942A19.529,19.529,0,0,1,396.1,325.8V191.284A19.8,19.8,0,0,1,415.942,171.7h87.486c11.081,0,20.357,9.019,20.357,19.584v44.838H478.948V211.9a2.826,2.826,0,0,0-2.319-2.835H443.9a2.86,2.86,0,0,0-2.835,2.835v93.67a2.649,2.649,0,0,0,2.835,2.577h32.727a2.547,2.547,0,0,0,2.319-2.577V280.832h44.838Z" transform="translate(87.714 -171.7)"/><path class="d" d="M650.5,345.77H605.657V276.58H563.138v69.19H518.3V171.7h44.838v66.484h42.519V171.7H650.5Z" transform="translate(122.963 -171.7)"/></g></g><g transform="translate(717.797)"><path class="a" d="M557.1,106.3h17.781v18.683H639.3v21.131H574.881V164.8H557.1Z" transform="translate(-557.1 30.662)"/><path class="a" d="M639.3,50.4V71.531h-32.6v20.1h32.6v21.131H557.1V91.63h31.438v-20.1H557.1V50.4Z" transform="translate(-557.1 14.538)"/><path class="a" d="M557.1,53.728V0h17.652V32.6h14.431V0h17.523V32.6h14.817V0H639.3V53.728Z" transform="translate(-557.1)"/></g></g></svg>