<svg xmlns="http://www.w3.org/2000/svg" viewBox="19853 -1756 24 24"><defs><style>.a{fill:#3c5a99;}.b{fill:#fff;}</style></defs><g transform="translate(18401 -2472)"><path class="a" d="M22.678,24A1.324,1.324,0,0,0,24,22.678V1.322A1.324,1.324,0,0,0,22.678,0H1.322A1.324,1.324,0,0,0,0,1.322V22.669a1.324,1.324,0,0,0,1.322,1.322H22.678Z" transform="translate(1452 716)"/><path class="b" d="M114.67,60.676v-9.3h3.12l.468-3.624H114.67V45.444c0-1.052.288-1.762,1.8-1.762h1.915V40.444a25.424,25.424,0,0,0-2.8-.144c-2.77,0-4.658,1.691-4.658,4.784v2.671H107.8v3.624h3.129v9.3Z" transform="translate(1353.894 679.324)"/></g></svg>