<svg xmlns="http://www.w3.org/2000/svg" viewBox="19941 -1756 24 23.933"><defs><style>.a{fill:#007bb6;}.b{fill:#fff;}</style></defs><g transform="translate(19941 -1756)"><path class="a" d="M22.139,0H1.8A1.775,1.775,0,0,0,0,1.729V22.2a1.775,1.775,0,0,0,1.8,1.729H22.2A1.775,1.775,0,0,0,24,22.2V1.729A1.882,1.882,0,0,0,22.139,0Z"/><path class="b" d="M5.166,10.651H8.689V22.086H5.166ZM6.961,5A2.061,2.061,0,1,1,4.9,7.061,2.029,2.029,0,0,1,6.961,5" transform="translate(-1.642 -1.676)"/><path class="b" d="M14,13.332h3.391v1.529h.066A3.721,3.721,0,0,1,20.848,13c3.59,0,4.255,2.393,4.255,5.452V24.7H21.579V19.116c0-1.33,0-3.058-1.861-3.058s-2.127,1.463-2.127,2.925v5.651H14Z" transform="translate(-4.693 -4.357)"/></g></svg>