<svg xmlns="http://www.w3.org/2000/svg" viewBox="16888 -1227 25.463 20"><defs><style>.a{fill:#42c3b7;}</style></defs><path class="a" d="M38.334,30.427a1.507,1.507,0,0,0-.344-.551l-8.261-8.364A1.748,1.748,0,0,0,28.49,21a1.462,1.462,0,0,0-1.1.516,1.663,1.663,0,0,0-.481,1.2,1.72,1.72,0,0,0,.481,1.2l5.439,5.439H14.687A1.668,1.668,0,0,0,13,31.047a1.646,1.646,0,0,0,1.686,1.686H32.861L27.389,38.07a1.663,1.663,0,0,0-.481,1.2,1.534,1.534,0,0,0,.481,1.2,1.754,1.754,0,0,0,1.2.516h.035a1.462,1.462,0,0,0,1.1-.516l8.261-8.261c.035-.035.069-.1.1-.137,0-.035.035-.035.069-.1a1.576,1.576,0,0,0,.172-1.55Z" transform="translate(16875 -1247.995)"/></svg>