<svg xmlns="http://www.w3.org/2000/svg" viewBox="19897 -1756 24 24"><defs><style>.a{fill:#1da1f2;}.b{fill:#fff;}</style></defs><g transform="translate(19897 -1756)"><path class="a" d="M21,24H3a3,3,0,0,1-3-3V3A3,3,0,0,1,3,0H21a3,3,0,0,1,3,3V21A3,3,0,0,1,21,24Z"/><path class="b" d="M79.81,110.592a8.7,8.7,0,0,0,8.754-8.754c0-.132,0-.264-.006-.4a6.268,6.268,0,0,0,1.536-1.6,6.235,6.235,0,0,1-1.77.486,3.1,3.1,0,0,0,1.356-1.7,6.12,6.12,0,0,1-1.956.744,3.077,3.077,0,0,0-5.322,2.106,3.4,3.4,0,0,0,.078.7,8.737,8.737,0,0,1-6.342-3.216,3.089,3.089,0,0,0,.954,4.11,3.112,3.112,0,0,1-1.392-.384v.042a3.083,3.083,0,0,0,2.466,3.018,3.095,3.095,0,0,1-1.386.054,3.077,3.077,0,0,0,2.874,2.136,6.171,6.171,0,0,1-3.822,1.32,5.921,5.921,0,0,1-.732-.042,8.752,8.752,0,0,0,4.71,1.374" transform="translate(-70.594 -92.496)"/></g></svg>